<svg width="198" height="205" viewBox="0 0 198 205" fill="none" xmlns="http://www.w3.org/2000/svg">
<circle cx="98.8898" cy="102.227" r="96.2272" fill="#F4C727"/>
<path d="M99.3131 60.9998L105.77 85.2946L111.168 65.4171L116.566 59.2119L122.706 62.7878V71.3067L117.519 90.2377L116.566 100.124L125.352 104.015L126.304 113.481L125.352 121.579L114.026 132.727V137.355L113.497 145.979L83.0125 145.243V139.248L82.0598 132.727L76.9791 129.362L71.3691 119.686V92.3411L73.9095 88.1342L81.0013 85.2946L82.0598 81.1929L86.6113 78.0377L92.1154 80.667L90.316 73.5153L89.2575 62.7878L94.5499 59.2119L99.3131 60.9998Z" fill="#F9F5EA" stroke="black" stroke-width="0.847737"/>
<path d="M183.549 101.072C183.49 97.8105 183.241 94.5944 182.829 91.4371C182.737 90.7311 182.632 90.0382 182.521 89.3387C181.971 85.8546 181.212 82.4489 180.256 79.1216C180.066 78.4549 179.87 77.7947 179.66 77.1344C179.248 75.8205 178.803 74.5132 178.325 73.2319C177.847 71.9442 177.343 70.6695 176.806 69.4144C176.538 68.7804 176.263 68.1594 175.981 67.5383C171.89 58.5371 166.273 50.3857 159.471 43.4043C159.236 43.169 159 42.9271 158.758 42.6918C158.522 42.4499 158.287 42.2146 158.044 41.9793C156.126 40.0967 154.11 38.3056 152.022 36.6125C151.531 36.2138 151.033 35.8216 150.536 35.4359C146.156 32.0433 141.436 29.0756 136.442 26.585C136.042 26.3824 135.643 26.1863 135.237 25.9967C133.777 25.2973 132.291 24.637 130.785 24.0226C130.425 23.8722 130.059 23.7219 129.699 23.5781C128.291 23.0224 126.864 22.506 125.418 22.0288C125.097 21.9177 124.769 21.8131 124.442 21.7085C124.442 21.7085 124.436 21.702 124.429 21.702C123.447 21.3882 122.459 21.0875 121.464 20.813C120.469 20.5384 119.467 20.277 118.459 20.0351C118.118 19.9436 117.778 19.8651 117.431 19.7867C116.626 19.6037 115.808 19.4337 114.996 19.2703C114.865 19.2441 114.734 19.2245 114.603 19.1984C113.916 19.0676 113.222 18.9434 112.528 18.8258C112.03 18.7408 111.539 18.6624 111.042 18.597C110.708 18.5447 110.374 18.4989 110.034 18.4532C109.863 18.427 109.693 18.4074 109.517 18.3878C109.183 18.3421 108.855 18.3028 108.521 18.2636C108.188 18.2244 107.854 18.1852 107.52 18.1525C107.343 18.1329 107.166 18.1133 106.983 18.0937C106.656 18.061 106.315 18.0283 105.982 18.0021C105.68 17.976 105.379 17.9498 105.078 17.9237C105.045 17.9237 105.013 17.9172 104.98 17.9172H104.928C104.764 17.9041 104.6 17.8975 104.443 17.8845C103.782 17.8387 103.114 17.7995 102.447 17.7668H102.407C102.316 17.7603 102.224 17.7603 102.132 17.7537C102.047 17.7537 101.969 17.7407 101.884 17.7407C101.694 17.7341 101.504 17.7276 101.314 17.7211C101.157 17.7145 101.006 17.708 100.849 17.708C100.502 17.7014 100.155 17.6884 99.8084 17.6884C99.6447 17.6818 99.4745 17.6818 99.3108 17.6818H99.1079C98.7675 17.6753 98.4336 17.6753 98.0932 17.6753C97.9557 17.6753 97.8183 17.6753 97.6874 17.6818C97.419 17.6753 97.1506 17.6818 96.8822 17.6884C49.8862 18.5578 12.5002 57.3082 13.3774 104.23C13.3905 104.955 13.4167 105.674 13.4429 106.4C13.4756 107.119 13.5149 107.838 13.5673 108.551C13.6131 109.263 13.672 109.976 13.7375 110.688C13.8095 111.401 13.8815 112.107 13.9666 112.813C14.0517 113.512 14.1433 114.218 14.2415 114.917C14.3201 115.44 14.3987 115.963 14.4838 116.486C14.6605 117.526 14.8504 118.565 15.0533 119.591C15.158 120.108 15.2693 120.618 15.3806 121.127C15.5312 121.814 15.6948 122.487 15.8585 123.167C15.9829 123.67 16.1138 124.174 16.2513 124.677C16.3756 125.141 16.5 125.599 16.6375 126.056C16.7422 126.429 16.847 126.801 16.9583 127.174C17.3576 128.501 17.7896 129.808 18.2479 131.103C18.4836 131.75 18.7192 132.397 18.9614 133.031C19.2102 133.672 19.459 134.312 19.7208 134.94C20.238 136.208 20.7879 137.456 21.3705 138.692C21.6585 139.306 21.9596 139.921 22.2608 140.529C22.719 141.437 23.1903 142.339 23.6748 143.235C24.0021 143.83 24.3294 144.425 24.6698 145.007C25.0102 145.595 25.3572 146.177 25.7041 146.752C26.2344 147.621 26.7777 148.478 27.3342 149.321C27.524 149.602 27.7073 149.883 27.8971 150.164C28.2768 150.726 28.6631 151.275 29.0493 151.824C29.8349 152.929 30.64 154.008 31.4714 155.067C31.7857 155.465 32.0999 155.858 32.4206 156.25C33.0556 157.034 33.7103 157.806 34.3714 158.564C34.7053 158.937 35.0392 159.316 35.3796 159.688C35.8313 160.185 36.2895 160.675 36.7543 161.166C37.2191 161.656 37.6839 162.133 38.1618 162.61L38.8753 163.323C54.246 178.371 75.299 187.627 98.4336 187.627C98.9704 187.627 99.5072 187.627 100.044 187.614C147.04 186.744 184.426 147.994 183.549 101.072ZM155.976 157.982C141.174 173.324 121.28 181.992 99.9458 182.384C99.4418 182.397 98.9377 182.397 98.4336 182.397C77.42 182.397 57.5716 174.298 42.5478 159.59C27.5044 144.863 19.0007 125.167 18.6145 104.132C18.2152 82.8346 26.1493 62.6553 40.9505 47.3199C55.7517 31.9779 75.6459 23.3101 96.9804 22.9113C97.4844 22.9048 97.9885 22.8982 98.4925 22.8982C119.506 22.8982 139.355 31.0039 154.378 45.7118C169.422 60.4393 177.925 80.1349 178.312 101.164C178.711 122.467 170.777 142.64 155.976 157.982Z" fill="white"/>
<path d="M183.549 101.073C183.49 97.8107 183.241 94.5946 182.829 91.4373C182.737 90.7313 182.632 90.0384 182.521 89.3389C181.971 85.8548 181.212 82.4491 180.256 79.1218C180.066 78.4551 179.863 77.7949 179.66 77.1346C179.241 75.8207 178.796 74.5134 178.325 73.2321C177.847 71.9444 177.343 70.6697 176.806 69.4146C176.538 68.7805 176.263 68.1595 175.981 67.5385C171.89 58.5373 166.273 50.3859 159.471 43.4045C159.236 43.1692 159 42.9273 158.758 42.692C158.522 42.4501 158.287 42.2148 158.044 41.9795C156.126 40.0969 154.11 38.3058 152.022 36.6127C151.531 36.214 151.033 35.8218 150.536 35.4361C146.156 32.0435 141.436 29.0757 136.442 26.5852C136.042 26.3826 135.643 26.1865 135.237 25.9969C133.777 25.2974 132.291 24.6372 130.785 24.0228C130.425 23.8724 130.059 23.7221 129.699 23.5783C128.291 23.0226 126.864 22.5062 125.418 22.029C125.097 21.9179 124.769 21.8133 124.442 21.7087C124.442 21.7087 124.436 21.7022 124.429 21.7022C123.447 21.3884 122.459 21.0877 121.464 20.8132C120.469 20.5321 119.467 20.2706 118.459 20.0353C118.118 19.9438 117.778 19.8653 117.431 19.7869C116.626 19.6039 115.808 19.4339 114.996 19.2705C114.865 19.2443 114.734 19.2247 114.603 19.1986C113.916 19.0678 113.222 18.9436 112.528 18.826C112.371 18.7998 112.207 18.7802 112.05 18.7541C111.716 18.6952 111.382 18.6429 111.042 18.5972C110.708 18.5449 110.374 18.4991 110.034 18.4534C109.863 18.4272 109.693 18.4076 109.517 18.388C109.183 18.3422 108.855 18.303 108.521 18.2638C108.188 18.2246 107.854 18.1854 107.52 18.1527C107.343 18.1331 107.166 18.1135 106.983 18.0938C106.656 18.0612 106.315 18.0285 105.982 18.0023C105.68 17.9762 105.379 17.95 105.078 17.9239C105.045 17.9239 105.013 17.9173 104.98 17.9173H104.928C104.764 17.9043 104.6 17.8977 104.443 17.8847C103.782 17.8389 103.114 17.7997 102.447 17.767H102.407C102.316 17.7605 102.224 17.7605 102.132 17.7539C102.047 17.7539 101.969 17.7409 101.884 17.7409C101.694 17.7343 101.504 17.7278 101.314 17.7212C101.157 17.7147 101.006 17.7082 100.849 17.7082C100.502 17.7016 100.155 17.6886 99.8084 17.6886C99.6447 17.682 99.4745 17.682 99.3108 17.682H99.1079C98.905 17.6755 98.702 17.6689 98.4925 17.6689C98.3551 17.6689 98.2242 17.6689 98.0932 17.6689C97.9557 17.6689 97.8183 17.6689 97.6874 17.6755C97.419 17.6689 97.1506 17.6755 96.8822 17.682C49.8862 18.558 12.5002 57.3084 13.3774 104.23C13.3905 104.955 13.4167 105.675 13.4429 106.4C13.4756 107.119 13.5149 107.838 13.5673 108.551C13.6131 109.263 13.672 109.976 13.7375 110.688C13.8095 111.401 13.8815 112.107 13.9666 112.813C14.0517 113.512 14.1433 114.218 14.2415 114.918C14.3201 115.441 14.3987 115.964 14.4838 116.486C14.6605 117.526 14.8504 118.565 15.0533 119.591C15.158 120.108 15.2693 120.618 15.3806 121.128C15.5312 121.814 15.6948 122.487 15.8585 123.167C15.9829 123.67 16.1138 124.174 16.2513 124.677C16.3756 125.141 16.5 125.599 16.6375 126.056C16.7422 126.429 16.847 126.802 16.9583 127.174C17.3576 128.501 17.7896 129.809 18.2479 131.103C18.4836 131.75 18.7192 132.397 18.9614 133.031C19.2102 133.672 19.459 134.312 19.7208 134.94C20.2445 136.208 20.7944 137.457 21.3705 138.692C21.6585 139.307 21.9596 139.921 22.2608 140.529C22.719 141.438 23.1903 142.34 23.6748 143.235C24.0021 143.83 24.3294 144.425 24.6698 145.007C25.0102 145.595 25.3572 146.177 25.7041 146.752C26.2344 147.621 26.7777 148.478 27.3342 149.321C27.524 149.602 27.7073 149.883 27.8971 150.164C28.2768 150.726 28.6631 151.276 29.0493 151.825C29.8349 152.929 30.64 154.008 31.4714 155.067C31.7857 155.466 32.0999 155.858 32.4206 156.25C33.0556 157.035 33.7103 157.806 34.3714 158.564C34.7053 158.937 35.0392 159.316 35.3796 159.688C35.8313 160.185 36.2895 160.676 36.7543 161.166C37.2191 161.656 37.6839 162.133 38.1618 162.61L38.8753 163.323C54.246 178.371 75.299 187.627 98.4336 187.627C98.9704 187.627 99.5072 187.627 100.044 187.614C147.04 186.744 184.426 147.994 183.549 101.073ZM155.976 157.982C141.174 173.324 121.28 181.992 99.9458 182.384C99.4418 182.397 98.9377 182.397 98.4336 182.397C77.42 182.397 57.5716 174.298 42.5478 159.59C27.5044 144.863 19.0007 125.167 18.6145 104.132C18.2152 82.8348 26.1493 62.6555 40.9505 47.3201C55.7517 31.9781 75.6459 23.3102 96.9804 22.9115C97.4844 22.905 97.9885 22.8984 98.4925 22.8984C119.506 22.8984 139.355 31.0041 154.378 45.712C169.422 60.4395 177.925 80.1351 178.312 101.164C178.711 122.468 170.777 142.64 155.976 157.982Z" fill="black"/>
<path d="M127.683 108.865L127.65 108.237C127.565 106.668 126.976 105.106 125.837 103.472C123.938 100.739 121.346 99.1115 118.125 98.6278C118.033 98.6147 117.929 98.6017 117.837 98.5821C117.857 98.484 117.883 98.3663 117.909 98.2618L118.243 96.8563C118.439 96.0392 118.636 95.2221 118.826 94.405L120.429 87.6002C122.04 80.7888 123.644 73.9774 125.234 67.166C125.738 65.0154 125.378 62.9236 124.193 61.1063C122.419 58.387 119.735 57.1973 116.43 57.6745C113.34 58.119 110.872 60.4657 110.145 63.6491C109.484 66.5384 108.829 69.4343 108.175 72.3301C107.618 74.801 107.055 77.2785 106.492 79.7494C106.46 79.8932 106.427 80.0436 106.401 80.1874L105.537 76.3502C104.581 72.1013 103.625 67.8458 102.65 63.6034C102.172 61.5247 100.928 59.7793 99.1408 58.6942C97.3405 57.596 95.2064 57.2823 93.1182 57.8117C89.066 58.8446 86.6177 62.9301 87.5472 67.1137C88.0448 69.3362 88.575 71.5914 89.0922 73.7682C89.3213 74.7422 89.557 75.7227 89.7861 76.6967C87.3116 75.8992 84.7258 76.2783 82.6703 77.7818C80.5689 79.318 79.4233 81.7758 79.4887 84.4886C79.4691 84.4821 79.4429 84.4755 79.4233 84.469C77.0077 83.6781 74.3433 84.1291 72.314 85.6849C70.2846 87.2341 69.1587 89.6723 69.2896 92.2086C69.3027 92.444 69.3223 92.6858 69.3485 92.9212C69.3812 93.2872 69.414 93.6337 69.4074 93.9736C69.3681 96.2549 69.3223 98.5298 69.2765 100.811C69.1914 104.962 69.1063 109.257 69.0801 113.48C69.0277 122.324 72.9228 128.959 80.6736 133.201C80.8831 133.319 80.9158 133.352 80.9158 133.665C80.9027 136.378 80.9093 139.097 80.9093 141.81V145.314C80.9093 146.007 80.9748 146.719 81.433 147.19C81.9043 147.674 82.6048 147.739 83.2921 147.739H112.665C114.426 147.739 115.048 147.105 115.048 145.314V142.804C115.048 139.895 115.048 136.979 115.035 134.071C115.035 133.776 115.035 133.744 115.323 133.613C121.575 130.639 125.568 125.762 127.192 119.121C128.03 115.709 127.84 112.231 127.663 108.865H127.683ZM111.382 143.817C111.382 143.928 111.382 144 111.376 144.046C111.337 144.046 111.265 144.059 111.186 144.052C106.924 144.039 102.519 144.033 97.8904 144.033C93.7139 144.033 89.3606 144.033 84.7847 144.046C84.6996 144.033 84.6407 144.046 84.6014 144.039C84.6014 144 84.6014 143.954 84.6014 143.882C84.6145 142.085 84.6145 140.287 84.6145 138.496C84.6145 136.574 84.6145 134.652 84.6341 132.731C84.6472 131.534 84.1759 130.789 83.063 130.233C76.3007 126.847 72.8442 121.33 72.7919 113.826C72.7722 111.466 72.8311 109.061 72.8901 106.734L72.9032 106.073C74.7689 109.446 77.3546 110.852 80.7587 110.355C84.8043 109.767 86.9777 107.093 87.3836 102.19C88.3983 102.524 89.6093 102.766 90.9121 102.563C91.4292 102.485 91.9333 102.36 92.4112 102.197C91.9333 102.981 91.5929 103.857 91.4292 104.792C91.0233 107.1 91.6191 109.414 93.0527 111.152C94.4929 112.898 96.6728 113.924 99.036 113.97C99.4353 113.976 99.8347 113.976 100.234 113.976C97.5369 116.297 95.9593 119.52 95.4225 123.775C95.2981 124.749 95.2719 125.73 95.2588 126.566C95.2392 127.717 95.9658 128.553 97.0198 128.586C97.5304 128.612 97.9886 128.442 98.329 128.122C98.7022 127.769 98.9116 127.246 98.9247 126.612C98.9575 125.109 99.0884 123.873 99.3437 122.723C100.385 117.996 103.618 114.97 108.456 114.199C110.263 113.911 112.129 114.101 114.086 113.97C114.904 113.918 115.349 113.591 115.585 113.323C115.886 112.976 116.024 112.519 115.984 111.996C115.906 110.937 115.199 110.316 114.053 110.29C113.228 110.27 112.404 110.27 111.579 110.276H107.108C104.45 110.276 101.799 110.276 99.1408 110.276C97.406 110.276 96.1491 109.492 95.4094 107.969C94.7024 106.524 94.8398 105.125 95.8218 103.812C96.6335 102.72 97.7268 102.164 99.0622 102.164H101.085C106.172 102.151 111.428 102.138 116.6 102.164C120.279 102.184 123.578 105.027 123.951 108.505C124.292 111.662 124.501 115.369 123.48 118.925C121.909 124.376 118.413 128.305 113.084 130.6C111.625 131.227 111.389 131.587 111.389 133.162V135.587C111.382 138.333 111.376 141.078 111.402 143.824L111.382 143.817ZM120.861 62.7536C121.667 63.7734 121.942 65.1396 121.627 66.4992C120.161 72.7942 118.675 79.0892 117.189 85.3842C116.849 86.8288 116.502 88.2669 116.161 89.705C115.513 92.4243 114.839 95.2287 114.204 98.0003C114.093 98.5036 114.073 98.5036 113.621 98.4971C109.202 98.4579 104.522 98.4579 98.8789 98.484C98.0934 98.484 97.3274 98.6213 96.6008 98.8566C97.6089 97.1701 97.9166 95.1437 97.4584 93.1042C96.6532 89.4958 95.776 85.8483 94.9315 82.3118C94.5125 80.573 94.1001 78.8408 93.6877 77.102L93.6419 76.8993C92.8236 73.4348 92.0118 69.9703 91.2132 66.4992C90.9317 65.2703 91.1215 64.0544 91.75 63.0674C92.313 62.1784 93.1836 61.5704 94.2114 61.3416C94.5256 61.2763 94.8267 61.2371 95.1279 61.2371C97.0394 61.2371 98.6498 62.5836 99.1277 64.7016C100.371 70.1795 101.609 75.6639 102.846 81.1483L104.371 87.8943L104.456 88.2604C104.496 88.4303 104.535 88.6003 104.574 88.7768C104.882 90.2084 105.864 90.4175 106.42 90.4175C107.415 90.4175 108.044 89.8358 108.293 88.6983C108.502 87.7374 108.718 86.7765 108.941 85.8156L110.407 79.3376C111.52 74.4088 112.633 69.4735 113.759 64.5512C114.21 62.5771 115.808 61.2567 117.739 61.2567H117.785C119.028 61.2697 120.122 61.7992 120.875 62.7536H120.861ZM91.2394 98.7193C89.3344 99.373 87.2265 98.5363 86.3296 96.7648C85.9958 96.1046 85.8387 95.3529 85.6816 94.5619C85.6095 94.2024 85.5375 93.8428 85.4459 93.4899L85.0466 91.9341C84.477 89.7116 83.9075 87.4825 83.3576 85.2534C83.0172 83.8676 83.2791 82.4883 84.0712 81.4751C84.8305 80.5142 85.963 79.9847 87.2658 79.9847H87.2789C89.0791 79.9847 90.6371 81.1156 91.0692 82.7237C92.1624 86.8092 93.0854 90.5483 93.8906 94.1566C94.3227 96.0784 93.1836 98.0395 91.2394 98.7063V98.7193ZM83.1547 104.844C82.5786 105.76 81.6425 106.4 80.5231 106.655C78.3824 107.139 76.2745 105.766 75.7181 103.544C75.2729 101.772 74.8474 99.994 74.4154 98.216L73.7018 95.281C73.6232 94.9541 73.5381 94.6273 73.453 94.3004C73.3221 93.8036 73.1977 93.3134 73.0865 92.81C72.805 91.5549 73.0995 90.2672 73.8916 89.2736C74.6576 88.3192 75.7966 87.7701 77.0142 87.7701C78.8865 87.7701 80.451 88.986 80.9093 90.7901L81.577 93.4179C82.2709 96.1438 82.991 98.9677 83.6391 101.752C83.8944 102.844 83.7242 103.942 83.1612 104.838L83.1547 104.844Z" fill="black"/>
<path d="M52.2168 50.6931L54.3902 48.8955L62.5665 58.7269L67.8036 54.3865L69.6038 56.5567L62.1999 62.7013L52.2233 50.7062L52.2168 50.6931Z" fill="black"/>
<path d="M63.9741 41.666L73.2306 36.8745L74.4875 39.2997L67.7382 42.7904L69.3421 45.8823L75.2861 42.8034L76.5169 45.1698L70.5728 48.2486L72.4058 51.7785L79.1157 48.3075L80.3726 50.7326L71.1554 55.5045L63.9741 41.6595V41.666Z" fill="black"/>
<path d="M82.5653 36.7436L78.1073 37.9137L77.3872 35.1879L89.0265 32.1221L89.7466 34.8479L85.269 36.0246L88.529 48.3792L85.8189 49.0917L82.5588 36.7371L82.5653 36.7436Z" fill="black"/>
<path d="M94.1982 31.6774L97.3076 31.4028L95.4747 37.8416L93.4126 38.0247L94.1982 31.6774Z" fill="black"/>
<path d="M99.3696 41.6591L102.335 41.8552C102.492 43.6986 103.5 44.7968 105.346 44.921C106.891 45.0255 107.886 44.398 107.971 43.1299C108.043 42.0121 107.336 41.2799 104.914 40.4105C101.622 39.247 100.293 37.4559 100.45 35.0961C100.633 32.3506 102.715 30.8275 105.811 31.0302C109.097 31.2459 110.95 33.2658 110.963 36.7564L108.148 36.5734C108.083 34.632 107.343 33.6972 105.798 33.5991C104.423 33.5076 103.52 34.1417 103.441 35.2987C103.363 36.4557 104.155 37.2663 106.584 38.0899C109.876 39.2143 111.12 40.9531 110.963 43.3129C110.773 46.2087 108.58 47.7449 105.163 47.5226C101.53 47.2873 99.4482 45.1432 99.3762 41.6656L99.3696 41.6591Z" fill="black"/>
<path d="M162.339 65.5578L164.833 70.4212C166.404 73.4805 165.278 76.0952 162.712 77.4091C160.237 78.6773 157.403 78.2393 155.661 74.8532L154.562 72.7091L149.731 75.18L148.441 72.6699L162.339 65.5513V65.5578ZM158.038 73.6831C158.804 75.1735 159.936 75.6376 161.318 74.9316C162.849 74.1472 163.039 72.866 162.332 71.4867L161.213 69.3034L156.918 71.4998L158.038 73.6831Z" fill="black"/>
<path d="M168.78 79.416L169.52 82.1353L157.173 85.4822L158.954 92.0387L156.231 92.7773L153.71 83.495L168.78 79.416Z" fill="black"/>
<path d="M172.354 98.0921L172.479 101.615L157.056 107.263L156.951 104.296L159.93 103.224L159.72 97.3338L156.676 96.4971L156.571 93.5947L172.354 98.0921ZM162.738 102.223L169.147 99.9289V99.9093L162.594 98.1182L162.738 102.223Z" fill="black"/>
<path d="M162.018 111.205L172.544 107.904L172.021 111.002L165.003 113.199L170.914 117.513L170.391 120.585L161.546 113.983L155.832 113.016L156.303 110.237L162.018 111.205Z" fill="black"/>
<path d="M35.8183 89.7569C41.1797 90.2275 43.7786 93.3979 43.4251 97.3592C43.1305 100.7 40.9048 102.883 36.9508 103.046L37.2061 100.131C39.2028 100.072 40.5578 98.9346 40.7215 97.0716C40.931 94.7118 39.098 92.973 35.5761 92.6658C31.8643 92.3389 29.8415 93.9078 29.619 96.4375C29.4226 98.6862 30.7842 100.15 32.8856 100.334L33.2849 95.7904L35.7332 96.0061L35.0851 103.334L32.9445 103.125C28.5323 102.667 26.6666 99.268 26.9612 95.9669C27.2754 92.4501 29.9986 89.2405 35.8118 89.7504L35.8183 89.7569Z" fill="black"/>
<path d="M42.6527 105.969L44.178 116.271L41.4744 116.67L40.3615 109.159L36.9116 109.669L37.8935 116.284L35.2488 116.676L34.2669 110.061L30.326 110.643L31.4323 118.114L28.7287 118.513L27.21 108.257L42.6593 105.969H42.6527Z" fill="black"/>
<path d="M43.4967 123.043L41.8471 118.742L44.4852 117.735L48.7861 128.965L46.148 129.972L44.4918 125.651L32.5382 130.214L31.5366 127.599L43.4902 123.036L43.4967 123.043Z" fill="black"/>
<path d="M52.4982 134.75L54.1152 137.058L41.3171 145.994L39.7002 143.686L52.4982 134.75Z" fill="black"/>
<path d="M55.5226 139.372L57.6829 141.529L54.5341 153.681L54.5669 153.707L62.2261 146.053L64.1769 148.001L53.1398 159.028L51.0057 156.897L54.2003 144.641L54.1675 144.608L46.4298 152.335L44.479 150.387L55.5161 139.359L55.5226 139.372Z" fill="black"/>
<path d="M72.1636 156.348L68.0591 154.249L69.3422 151.739L80.065 157.211L78.7819 159.721L74.6578 157.616L68.8315 168.99L66.3374 167.715L72.1636 156.341V156.348Z" fill="black"/>
<path d="M78.4938 164.931C79.7768 159.734 83.5606 157.786 87.3902 158.727C91.2983 159.688 93.5503 163.251 92.2999 168.33C91.0496 173.403 87.3771 175.71 83.4624 174.749C79.6132 173.801 77.2172 170.134 78.5003 164.931H78.4938ZM84.1301 172.121C86.1137 172.612 88.5423 171.324 89.4588 167.605C90.3622 163.95 88.8107 161.865 86.7421 161.355C84.7128 160.859 82.2579 161.911 81.3349 165.65C80.4446 169.265 82.0157 171.599 84.1301 172.115V172.121Z" fill="black"/>
<path d="M96.2672 171.651L96.1362 160.918L98.9381 160.885L99.0624 170.906C99.0886 173.141 100.313 174.181 102.159 174.161C103.946 174.142 105.137 173.07 105.111 170.834L104.987 160.813L107.789 160.78L107.92 171.494C107.959 174.723 105.511 176.861 102.08 176.9C98.6762 176.939 96.2999 174.861 96.2606 171.658L96.2672 171.651Z" fill="black"/>
<path d="M111.768 168.14C110.485 163.297 112.246 159.499 116.22 158.446C119.637 157.544 122.602 159.257 124.043 162.852L121.149 163.617C120.331 161.538 118.688 160.551 116.855 161.035C114.564 161.636 113.68 164.029 114.57 167.376C115.46 170.742 117.483 172.409 119.833 171.788C121.601 171.324 122.53 169.768 122.242 167.774L125.136 167.01C125.601 170.69 123.84 173.488 120.494 174.37C116.475 175.429 113.051 172.997 111.762 168.134L111.768 168.14Z" fill="black"/>
<path d="M124.553 156.368L127.021 154.995L130.065 160.466L135.577 157.4L132.533 151.929L134.981 150.569L142.575 164.192L140.127 165.552L136.965 159.878L131.453 162.944L134.615 168.618L132.147 169.99L124.553 156.368Z" fill="black"/>
</svg>
